REM DIRINDEX 1\5,1\2\6,1\2\7,1\3\8,1\3\9,1\4\10,1\4\11,1\4\12
REM DIRNAME folder01,folder02,folder03,folder04,folder05,folder06,folder07,folder08,folder09,folder10,folder11,folder12
TITLE ""
FILE "EJE_DB3000_5th_3B_10.mp3" MP3
  TRACK 01 AUDIO
    TITLE "0:"
    INDEX 01 00:00:00
  TRACK 02 AUDIO
    TITLE "10:cjc026_08646"
    INDEX 01 00:00:05
  TRACK 03 AUDIO
    TITLE "0:"
    INDEX 01 00:00:62
  TRACK 04 AUDIO
    TITLE "11:cjc026_08647"
    INDEX 01 00:01:15
  TRACK 05 AUDIO
    TITLE "0:"
    INDEX 01 00:02:16
  TRACK 06 AUDIO
    TITLE "12:cjc026_08648"
    INDEX 01 00:02:42
  TRACK 07 AUDIO
    TITLE "0:"
    INDEX 01 00:03:23
  TRACK 08 AUDIO
    TITLE "10:cjc026_08649"
    INDEX 01 00:03:51
  TRACK 09 AUDIO
    TITLE "0:"
    INDEX 01 00:04:35
  TRACK 10 AUDIO
    TITLE "11:cjc026_08650"
    INDEX 01 00:04:60
  TRACK 11 AUDIO
    TITLE "0:"
    INDEX 01 00:05:48
  TRACK 12 AUDIO
    TITLE "12:cjc026_08651"
    INDEX 01 00:06:00
  TRACK 13 AUDIO
    TITLE "0:"
    INDEX 01 00:06:59
  TRACK 14 AUDIO
    TITLE "10:cjc026_08652"
    INDEX 01 00:07:09
  TRACK 15 AUDIO
    TITLE "0:"
    INDEX 01 00:08:01
  TRACK 16 AUDIO
    TITLE "11:cjc026_08653"
    INDEX 01 00:08:26
  TRACK 17 AUDIO
    TITLE "0:"
    INDEX 01 00:09:14
  TRACK 18 AUDIO
    TITLE "12:cjc026_08654"
    INDEX 01 00:09:40
  TRACK 19 AUDIO
    TITLE "0:"
    INDEX 01 00:10:33
  TRACK 20 AUDIO
    TITLE "10:cjc026_08655"
    INDEX 01 00:10:59
  TRACK 21 AUDIO
    TITLE "0:"
    INDEX 01 00:11:48
  TRACK 22 AUDIO
    TITLE "11:cjc026_08656"
    INDEX 01 00:12:01
  TRACK 23 AUDIO
    TITLE "0:"
    INDEX 01 00:13:06
  TRACK 24 AUDIO
    TITLE "12:cjc026_08657"
    INDEX 01 00:13:32
  TRACK 25 AUDIO
    TITLE "0:"
    INDEX 01 00:14:23
  TRACK 26 AUDIO
    TITLE "10:cjc026_08658"
    INDEX 01 00:14:51
  TRACK 27 AUDIO
    TITLE "0:"
    INDEX 01 00:15:42
  TRACK 28 AUDIO
    TITLE "11:cjc026_08659"
    INDEX 01 00:15:72
  TRACK 29 AUDIO
    TITLE "0:"
    INDEX 01 00:16:57
  TRACK 30 AUDIO
    TITLE "12:cjc026_08660"
    INDEX 01 00:17:08
  TRACK 31 AUDIO
    TITLE "0:"
    INDEX 01 00:17:74
  TRACK 32 AUDIO
    TITLE "10:cjc026_08661"
    INDEX 01 00:18:29
  TRACK 33 AUDIO
    TITLE "0:"
    INDEX 01 00:19:22
  TRACK 34 AUDIO
    TITLE "11:cjc026_08662"
    INDEX 01 00:19:48
  TRACK 35 AUDIO
    TITLE "0:"
    INDEX 01 00:20:47
  TRACK 36 AUDIO
    TITLE "12:cjc026_08663"
    INDEX 01 00:21:00
  TRACK 37 AUDIO
    TITLE "0:"
    INDEX 01 00:21:68
  TRACK 38 AUDIO
    TITLE "10:cjc026_08664"
    INDEX 01 00:22:19
  TRACK 39 AUDIO
    TITLE "0:"
    INDEX 01 00:23:16
  TRACK 40 AUDIO
    TITLE "11:cjc026_08665"
    INDEX 01 00:23:42
  TRACK 41 AUDIO
    TITLE "0:"
    INDEX 01 00:24:43
  TRACK 42 AUDIO
    TITLE "12:cjc026_08666"
    INDEX 01 00:24:71
  TRACK 43 AUDIO
    TITLE "0:"
    INDEX 01 00:25:68
  TRACK 44 AUDIO
    TITLE "10:cjc026_08667"
    INDEX 01 00:26:18
  TRACK 45 AUDIO
    TITLE "0:"
    INDEX 01 00:27:08
  TRACK 46 AUDIO
    TITLE "11:cjc026_08668"
    INDEX 01 00:27:34
  TRACK 47 AUDIO
    TITLE "0:"
    INDEX 01 00:28:27
  TRACK 48 AUDIO
    TITLE "12:cjc026_08669"
    INDEX 01 00:28:53
  TRACK 49 AUDIO
    TITLE "0:"
    INDEX 01 00:29:42
  TRACK 50 AUDIO
    TITLE "10:cjc026_08670"
    INDEX 01 00:29:68
  TRACK 51 AUDIO
    TITLE "0:"
    INDEX 01 00:30:54
  TRACK 52 AUDIO
    TITLE "11:cjc026_08671"
    INDEX 01 00:31:06
  TRACK 53 AUDIO
    TITLE "0:"
    INDEX 01 00:32:09
  TRACK 54 AUDIO
    TITLE "12:cjc026_08672"
    INDEX 01 00:32:37
  TRACK 55 AUDIO
    TITLE "0:"
    INDEX 01 00:33:22
  TRACK 56 AUDIO
    TITLE "10:cjc026_08673"
    INDEX 01 00:33:46
  TRACK 57 AUDIO
    TITLE "0:"
    INDEX 01 00:34:51
  TRACK 58 AUDIO
    TITLE "11:cjc026_08674"
    INDEX 01 00:35:04
  TRACK 59 AUDIO
    TITLE "0:"
    INDEX 01 00:36:05
  TRACK 60 AUDIO
    TITLE "12:cjc026_08675"
    INDEX 01 00:36:33
  TRACK 61 AUDIO
    TITLE "0:"
    INDEX 01 00:37:36
  TRACK 62 AUDIO
    TITLE "10:cjc026_08676"
    INDEX 01 00:37:63
  TRACK 63 AUDIO
    TITLE "0:"
    INDEX 01 00:38:57
  TRACK 64 AUDIO
    TITLE "11:cjc026_08677"
    INDEX 01 00:39:07
  TRACK 65 AUDIO
    TITLE "0:"
    INDEX 01 00:39:72
  TRACK 66 AUDIO
    TITLE "12:cjc026_08678"
    INDEX 01 00:40:24
  TRACK 67 AUDIO
    TITLE "0:"
    INDEX 01 00:41:18
  TRACK 68 AUDIO
    TITLE "10:cjc026_08679"
    INDEX 01 00:41:44
  TRACK 69 AUDIO
    TITLE "0:"
    INDEX 01 00:42:37
  TRACK 70 AUDIO
    TITLE "11:cjc026_08680"
    INDEX 01 00:42:65
  TRACK 71 AUDIO
    TITLE "0:"
    INDEX 01 00:43:60
  TRACK 72 AUDIO
    TITLE "12:cjc026_08681"
    INDEX 01 00:44:12
  TRACK 73 AUDIO
    TITLE "0:"
    INDEX 01 00:45:06
